<svg xmlns="http://www.w3.org/2000/svg" width="51" height="64" viewBox="0 0 51 64">
    <g fill="none" fill-rule="evenodd">
        <g fill="#EF3D3F" fill-rule="nonzero">
            <g>
                <path d="M.33 46.31c0 2.162 1.904 3.916 4.147 3.916h24.731L42.568 64l-.052-13.774h3.767c2.191.043 4.003-1.71 4.047-3.915V3.916c-.044-2.205-1.856-3.958-4.047-3.915H.33m11.337 42.25c-1.012-.017-1.976-.44-2.678-1.173-.702-.734-1.085-1.719-1.065-2.737V12.859l7.476 7.534v12.091c-.021 1.21.935 2.21 2.138 2.234h12.099l7.48 7.534h-25.45zm31.187-5.75l-7.494-7.544V16.861c.01-.581-.21-1.142-.61-1.56-.401-.418-.95-.659-1.528-.669H21.123l-7.48-7.538h25.46c1.01.017 1.973.439 2.675 1.172.702.732 1.086 1.716 1.067 2.734l.01 25.5z" transform="translate(-224 -41) translate(224 41)"/>
            </g>
        </g>
    </g>
</svg>
